<svg width="20" height="16" viewBox="0 0 20 16" fill="none" xmlns="http://www.w3.org/2000/svg">
<path d="M0 16V11.5556H1.81818V14.2222H4.54545V16H0ZM15.4545 16V14.2222H18.1818V11.5556H20V16H15.4545ZM2.72727 13.3333V2.66667H4.54545V13.3333H2.72727ZM5.45455 13.3333V2.66667H6.36364V13.3333H5.45455ZM8.18182 13.3333V2.66667H10V13.3333H8.18182ZM10.9091 13.3333V2.66667H13.6364V13.3333H10.9091ZM14.5455 13.3333V2.66667H15.4545V13.3333H14.5455ZM16.3636 13.3333V2.66667H17.2727V13.3333H16.3636ZM0 4.44444V0H4.54545V1.77778H1.81818V4.44444H0ZM18.1818 4.44444V1.77778H15.4545V0H20V4.44444H18.1818Z" fill="black"/>
</svg>
